# xmcd CD database file
#
# Track frame offsets:
#	150
#	20522
#	39048
#	56729
#	77017
#	91337
#	111674
#	132300
#	151230
#	156642
#	175800
#	188067
#
# Disc length: 2753 seconds
#
# Revision: 1
# Processed by: cddbd v1.5.2PL0 Copyright (c) Steve Scherf et al.
# Submitted via: CDex 1.70beta2
#
DISCID=980abf0c
DTITLE=Doyle Bramhall - Is It News
DYEAR=2007
DGENRE=Blues
TTITLE0=Lost In The Congo
TTITLE1=Is It News
TTITLE2=Chateau Strut
TTITLE3=Tortured Soul
TTITLE4=Cryin'
TTITLE5=I'll Take You Away
TTITLE6=Big
TTITLE7=Ooh Wee Baby
TTITLE8=You Left Me This Mornin'
TTITLE9=Top Rank Boxing
TTITLE10=Thay Day
TTITLE11=Little Start (The Moon Is Shining)
EXTD=YEAR: 2007
EXTT0=
EXTT1=
EXTT2=
EXTT3=
EXTT4=
EXTT5=
EXTT6=
EXTT7=
EXTT8=
EXTT9=
EXTT10=
EXTT11=
PLAYORDER=
